<?xml version="1.0" encoding="UTF-8" standalone="no"?>
<!-- Generator: Adobe Illustrator 16.0.0, SVG Export Plug-In . SVG Version: 6.00 Build 0)  -->

<svg
   xmlns:dc="http://purl.org/dc/elements/1.1/"
   xmlns:cc="http://creativecommons.org/ns#"
   xmlns:rdf="http://www.w3.org/1999/02/22-rdf-syntax-ns#"
   xmlns:svg="http://www.w3.org/2000/svg"
   xmlns="http://www.w3.org/2000/svg"
   xmlns:sodipodi="http://sodipodi.sourceforge.net/DTD/sodipodi-0.dtd"
   xmlns:inkscape="http://www.inkscape.org/namespaces/inkscape"
   inkscape:export-ydpi="67.499786"
   inkscape:export-xdpi="67.499786"
   inkscape:export-filename="/Users/yoniben/Desktop/Community_Noun_project_2280.png"
   sodipodi:docname="Community_Noun_project_2280.svg"
   inkscape:version="0.48.2 r9819"
   xml:space="preserve"
   enable-background="new -4.167 0 106.667 100"
   viewBox="-4.167 0 106.667 100"
   height="100px"
   width="106.667px"
   y="0px"
   x="0px"
   id="Layer_1"
   version="1.1"><sodipodi:namedview
   pagecolor="#ffffff"
   bordercolor="#666666"
   borderopacity="1"
   objecttolerance="10"
   gridtolerance="10"
   guidetolerance="10"
   inkscape:pageopacity="0"
   inkscape:pageshadow="2"
   inkscape:window-width="1000"
   inkscape:window-height="672"
   id="namedview15"
   showgrid="false"
   inkscape:zoom="2.36"
   inkscape:cx="53.3335"
   inkscape:cy="50"
   inkscape:window-x="0"
   inkscape:window-y="0"
   inkscape:window-maximized="0"
   inkscape:current-layer="Layer_1" /><metadata
   id="metadata19"><rdf:RDF><cc:Work
       rdf:about=""><dc:format>image/svg+xml</dc:format><dc:type
         rdf:resource="http://purl.org/dc/dcmitype/StillImage" /><dc:title></dc:title></cc:Work></rdf:RDF></metadata><defs
   id="defs17" />
<path
   id="path3"
   d="M77.083,7.99c6.074,0,10.998,4.923,10.998,10.997c0,6.074-4.923,10.998-10.998,10.998c-6.069,0-10.993-4.923-10.993-10.998  C66.09,12.913,71.014,7.99,77.083,7.99z"
   style="fill:#999999" />
<path
   id="path5"
   d="M21.379,7.99c6.074,0,10.997,4.923,10.997,10.997c0,6.074-4.923,10.998-10.997,10.998c-6.074,0-10.997-4.923-10.997-10.998  C10.382,12.913,15.305,7.99,21.379,7.99z"
   style="fill:#999999" />
<path
   id="path7"
   d="M50.975,19.433c8.096,0,14.658,6.563,14.658,14.66c0,8.1-6.563,14.663-14.658,14.663c-8.101,0-14.663-6.563-14.663-14.663  C36.312,25.996,42.874,19.433,50.975,19.433z"
   style="fill:#999999" />
<path
   id="path9"
   d="M89.657,33.813H68.695c0.003,0.097,0.016,0.19,0.016,0.287c0,5.912-2.902,11.134-7.35,14.358h5.477  c7.087,0,12.831,5.128,12.831,11.454v8.826h20.015V43.839C99.684,38.3,95.195,33.813,89.657,33.813z"
   style="fill:#999999" />
<path
   id="path11"
   d="M76.775,91.369V62.557c0-6.324-5.129-11.457-11.455-11.457H35.646c-6.326,0-11.454,5.133-11.454,11.457v28.813H76.775z"
   style="fill:#999999" />
<path
   id="path13"
   d="M33.232,34.094c0-0.095,0.013-0.187,0.014-0.282H9.709c-5.536,0-10.026,4.488-10.026,10.027v24.897h21.073v-8.863  c0-6.325,5.745-11.454,12.832-11.454h6.952C36.117,45.193,33.232,39.987,33.232,34.094z"
   style="fill:#999999" />
</svg>